<?xml version="1.0" encoding="UTF-8" standalone="no"?>
<svg width="135px" height="35px" viewBox="0 0 135 35" version="1.1" xmlns="http://www.w3.org/2000/svg" xmlns:xlink="http://www.w3.org/1999/xlink">
    <!-- Generator: Sketch 3.8.3 (29802) - http://www.bohemiancoding.com/sketch -->
    <title>Group</title>
    <desc>Created with Sketch.</desc>
    <defs></defs>
    <g id="Page-1" stroke="none" stroke-width="1" fill="none" fill-rule="evenodd">
        <g id="Desktop" transform="translate(-40.000000, -40.000000)" fill="#FFFFFF">
            <g id="Group" transform="translate(40.000000, 40.000000)">
                <path d="M134.024756,8.92529393 C134.275227,9.18588645 134.400462,9.49766679 134.400462,9.85598151 C134.400462,10.2142962 134.270588,10.5260766 134.01548,10.7820157 C133.760371,11.0379547 133.454241,11.1635976 133.097089,11.1635976 C132.888364,11.1635976 132.698192,11.1217166 132.526574,11.0333013 C131.751971,10.7075606 130.903155,10.5446903 129.980126,10.5446903 C128.175813,10.5446903 126.635885,11.1822113 125.364981,12.4572533 C124.094076,13.7322953 123.458624,15.2772367 123.458624,17.087424 L123.458624,24.9377738 C123.458624,25.300742 123.328751,25.6078689 123.073642,25.8638079 C122.818534,26.119747 122.512403,26.2500433 122.155251,26.2500433 C121.793461,26.2500433 121.487331,26.119747 121.232222,25.8638079 C120.977114,25.6078689 120.84724,25.300742 120.84724,24.9377738 L120.84724,9.23242083 C120.84724,8.87410611 120.977114,8.56697921 121.232222,8.31104012 C121.487331,8.05510104 121.793461,7.92480477 122.155251,7.92480477 C122.512403,7.92480477 122.818534,8.05510104 123.073642,8.31104012 C123.328751,8.56697921 123.458624,8.87410611 123.458624,9.23242083 L123.458624,10.6749866 C125.286129,8.84153204 127.456871,7.92480477 129.980126,7.92480477 C131.251031,7.92480477 132.419892,8.14351636 133.486709,8.58093952 C133.681519,8.65539453 133.862415,8.77173048 134.024756,8.92529393" id="Fill-1"></path>
                <path d="M119.576336,17.087424 C119.576336,17.4457388 119.446462,17.7528657 119.191354,18.0134582 C118.936245,18.2693973 118.630115,18.3950401 118.272963,18.3950401 L104.033267,18.3950401 C104.274461,19.6514683 104.872806,20.7589866 105.828304,21.7175948 C107.099208,22.9926368 108.639136,23.6301577 110.44345,23.6301577 C112.076144,23.6301577 113.476922,23.1136261 114.650422,22.0759095 C114.891615,21.889772 115.160639,21.7967032 115.466769,21.7967032 C115.823921,21.7967032 116.134689,21.9269995 116.389798,22.1829386 C116.644907,22.4388776 116.770142,22.7460045 116.770142,23.1089727 C116.770142,23.4672874 116.644907,23.7790678 116.394436,24.0396603 C114.71072,25.5101467 112.725512,26.2500433 110.44345,26.2500433 C107.920194,26.2500433 105.768006,25.3519298 103.986884,23.5650096 C102.395934,21.9688804 101.51465,20.0795846 101.343032,17.8878154 C101.366223,17.6272228 101.3755,17.3573234 101.3755,17.087424 C101.3755,16.8175246 101.366223,16.5476252 101.343032,16.2870327 C101.51465,14.0952635 102.395934,12.2059677 103.986884,10.6098385 C105.768006,8.81826485 107.920194,7.92480477 110.44345,7.92480477 C112.966705,7.92480477 115.118894,8.81826485 116.900015,10.6098385 C118.685775,12.3967586 119.576336,14.5559538 119.576336,17.087424 L119.576336,17.087424 Z M104.033267,15.779808 L116.853632,15.779808 C116.612438,14.5233797 116.014093,13.4158615 115.058595,12.4572533 C113.787691,11.1822113 112.247763,10.5446903 110.44345,10.5446903 C108.639136,10.5446903 107.099208,11.1822113 105.828304,12.4572533 C104.872806,13.4158615 104.274461,14.5233797 104.033267,15.779808 L104.033267,15.779808 Z" id="Fill-2"></path>
                <path id="Fill-3"></path>
                <path d="M86.9273887,23.0990692 C86.3012131,23.4248099 84.6125491,22.2434332 84.2693122,21.5826451 L83.8796918,20.8287881 C83.3648364,19.6886958 82.7258663,17.6843816 82.7258663,16.3302312 L82.7258663,13.0914384 L84.9789778,17.4038578 L85.0114461,17.4643525 L86.5328208,20.4006718 C86.8760577,21.0661135 87.5535642,22.7733286 86.9273887,23.0990692 Z" id="Fill-4"></path>
                <path d="M87.6274684,21.7175948 C88.8983728,22.9926368 90.4383008,23.6301577 92.242614,23.6301577 C94.0469272,23.6301577 95.5868552,22.9926368 96.8577596,21.7175948 C98.128664,20.4425528 98.7641163,18.8976114 98.7641163,17.087424 C98.7641163,15.2772367 98.128664,13.7322953 96.8577596,12.4572533 C95.5868552,11.1822113 94.0469272,10.5446903 92.242614,10.5446903 C90.4383008,10.5446903 88.8983728,11.1822113 87.6274684,12.4572533 C86.4586074,13.6299197 85.8277935,15.0352579 85.7350268,16.6639612 L83.1097278,11.6708223 L83.1097278,1.349497 C83.1097278,0.986528839 83.2396013,0.679401936 83.4947098,0.423462851 C83.7498184,0.167523765 84.0559487,0.0418809413 84.417739,0.0418809413 C84.7748909,0.0418809413 85.0810212,0.167523765 85.3361298,0.423462851 C85.5912383,0.679401936 85.7211118,0.986528839 85.7211118,1.349497 L85.7211118,10.6749866 L85.7860485,10.6098385 C87.56717,8.81826485 89.7193585,7.92480477 92.242614,7.92480477 C94.7658695,7.92480477 96.918058,8.81826485 98.6991795,10.6098385 C100.294768,12.2059677 101.176052,14.0952635 101.343032,16.2870327 C101.31984,16.5476252 101.310563,16.8175246 101.310563,17.087424 C101.310563,17.3573234 101.31984,17.6272228 101.343032,17.8878154 C101.176052,20.0795846 100.294768,21.9688804 98.6991795,23.5650096 C96.918058,25.3519298 94.7658695,26.2500433 92.242614,26.2500433 C89.7193585,26.2500433 87.56717,25.3519298 85.7860485,23.5650096 C84.9557861,22.7320442 84.3203339,21.8199704 83.8796918,20.8287881 L84.2693122,21.5826451 C84.6125491,22.2434332 85.3964281,22.5179861 86.0226037,22.1922454 C86.6487792,21.8665048 86.8760577,21.0661135 86.5328208,20.4006718 L85.0114461,17.4643525 L86.2127755,19.7491905 C86.2823506,19.8794868 86.356564,20.0004762 86.4354157,20.1075052 C86.4354157,20.1121587 86.4354157,20.1121587 86.440054,20.1121587 C86.7369076,20.689185 87.1358046,21.2243303 87.6274684,21.7175948" id="Fill-5"></path>
                <polyline id="Fill-6" points="84.9789778 17.4038578 83.1097278 13.8486312 83.1097278 13.7974434 84.9789778 17.4038578"></polyline>
                <path d="M83.1097278,13.8486312 L80.9297093,9.7070715 C81.0131994,9.80014026 81.0920511,9.90251589 81.1523495,10.0235053 L83.1097278,13.7974434 L83.1097278,13.8486312" id="Fill-7"></path>
                <path d="M81.3449951,11.2008251 L79.9324668,13.2157637 L78.4364484,11.654237 C78.1164031,11.0399832 78.7450524,9.85598151 79.2691846,9.49301335 C79.5753148,9.37667741 79.9371051,9.38598428 80.2664271,9.54420117 C80.9018793,9.85132807 81.6372104,10.5912247 81.3449951,11.2008251 Z" id="Fill-8"></path>
                <path d="M80.8926026,11.2008251 C81.1848179,10.5912247 80.9018793,9.85132807 80.2664271,9.54420117 C79.9371051,9.38598428 79.5753148,9.37667741 79.2691846,9.49301335 C79.3109296,9.46509273 79.3526746,9.4371721 79.399058,9.41390491 C79.9092751,9.14400551 80.5354506,9.27895521 80.9297093,9.7070715 L83.1097278,13.8486312 L83.1097278,17.087424 C83.1097278,18.4415745 83.3648364,19.6886958 83.8796918,20.8287881 L79.9324668,13.2157637 L80.8926026,11.2008251" id="Fill-9"></path>
                <path d="M78.8888409,11.2008251 L79.9324668,13.2157637 L73.3367511,27.0830087 C73.3042828,27.1481568 73.2671761,27.2086515 73.225431,27.2644928 C73.2950061,27.0411277 73.3042828,26.7944955 73.2347077,26.5525168 L72.3209553,23.2811499 L78.5919873,10.1026137 C78.7311374,9.80479369 78.9769693,9.59538899 79.2691846,9.49301335 C78.7450524,9.85598151 78.5687956,10.5865713 78.8888409,11.2008251" id="Fill-10"></path>
                <path d="M73.225431,27.2644928 C72.8868324,27.7391434 72.2235502,27.9113206 71.657673,27.6367678 C71.0222208,27.3342943 70.2915281,26.1409858 70.5837433,25.526732 L72.3209553,23.2811499 L74.1394927,25.1922811" id="Fill-11"></path>
                <path d="M71.657673,27.6367678 C72.2235502,27.9113206 72.8868324,27.7391434 73.225431,27.2644928 C73.1094726,27.6693419 72.7894273,28.0090428 72.3534236,28.1300322 C71.6715881,28.3208232 70.9711991,27.9252809 70.7810273,27.245879 L66.9033773,13.3693271 L68.09543,9.52558742 C68.2021117,9.18588645 68.1557284,8.83687861 68.0026632,8.54371202 C68.1742817,8.69262203 68.3041552,8.8973733 68.3690919,9.13469863 L72.3209553,23.2811499 L71.0361358,25.9801439 C70.7439206,26.5943977 71.0222208,27.3342943 71.657673,27.6367678" id="Fill-12"></path>
                <path d="M68.5478225,9.97899932 L67.4064823,15.2897557 L65.7623625,9.39600968 C65.5721907,8.71195431 65.9801756,8.18577331 66.6573729,7.99498236 C67.0980149,7.86933953 67.6872563,8.25054543 68.0026632,8.54371202 C68.1557284,8.83687861 68.6545042,9.63929835 68.5478225,9.97899932 Z" id="Fill-13"></path>
                <path d="M68.0026632,8.54371202 C67.6872563,8.25054543 67.2373376,8.12490261 66.7966955,8.25054543 C66.1194983,8.44133638 65.7252396,9.14400551 65.9154115,9.82806088 L66.9033773,13.3693271 L61.5321827,30.7266506 L60.4468118,25.5939085 L65.6556646,8.76707704 C65.8690281,8.09232854 66.583332,7.71540007 67.2558909,7.92480477 C67.5898512,8.03183385 67.8495981,8.2598523 68.0026632,8.54371202" id="Fill-14"></path>
                <path d="M60.4097051,33.3279224 C60.4700035,33.5978218 60.4421734,33.8677212 60.3447684,34.1050465 L59.3196958,29.2422039 L59.3985475,28.9862648 L60.4097051,33.3279224" id="Fill-15"></path>
                <polyline id="Fill-16" points="57.9931313 22.9693696 59.3985475 28.9862648 59.3196958 29.2422039 57.9931313 22.9693696"></polyline>
                <path d="M59.4588459,34.8635569 C59.2315674,34.9193981 59.0042889,34.9054378 58.800202,34.8402897 C57.7521105,34.7050498 57.4155037,31.6518495 57.6149522,31.0143285 L58.8673033,26.9751444 L60.3447684,33.1982227 C60.7055289,34.8402895 59.8716579,34.7658347 59.4588459,34.8635569 Z" id="Fill-17"></path>
                <path d="M60.3865134,34.3051443 C60.0942981,34.8077156 59.4866759,35.0683082 58.9068838,34.8821706 C58.8697771,34.8728638 58.8326704,34.8589034 58.800202,34.8402897 C59.0042889,34.9054378 59.2315674,34.9193981 59.4588459,34.8635569 C59.8716579,34.7658347 60.1963416,34.4726681 60.3447684,34.1050465 L60.3865134,34.3051443" id="Fill-18"></path>
                <path d="M58.0673447,33.281388 C57.8678962,33.918909 58.1972182,34.5936575 58.800202,34.8402897 C58.3781133,34.7146469 58.030238,34.3702925 57.9235563,33.9096021 L51.3927774,5.90986616 L52.7378952,1.83345454 C52.8213852,1.57286202 52.8167469,1.30761606 52.7332568,1.06563728 C52.8631303,1.2145473 52.9605354,1.40068481 53.0115571,1.61008952 L57.9931313,22.9693696 L59.3196958,29.2422039 L58.0673447,33.281388" id="Fill-19"></path>
                <path d="M52.7332568,1.06563728 C52.8167469,1.30761606 53.2737777,2.93309772 53.1902877,3.19369024 L51.6367221,6.61338234 L50.0730158,2.19176926 C50.4928455,1.19192203 50.7897935,0.819005074 51.4762674,0.656134746 C51.9540162,0.544452236 52.4317649,0.716629439 52.7332568,1.06563728 Z" id="Fill-20"></path>
                <path d="M44.4470218,25.7780176 C44.6650237,26.4434593 43.8601176,28.0669125 43.1968353,28.2902775 C42.7051716,28.4578013 42.1856778,27.8508259 41.8609942,27.4878578 C41.8331642,27.2970668 41.3946867,25.7413867 41.4549851,25.5505958 L43.0576852,23.4254065 L44.4470218,24.4177819" id="Fill-21"></path>
                <path d="M44.2172695,27.6739953 C44.0085444,28.3161697 43.3174321,28.6651776 42.6819799,28.4511194 C42.2320612,28.3068629 41.9305692,27.9206275 41.8609942,27.4878578 C42.1856778,27.8508259 42.7051716,28.0043894 43.1968353,27.8368656 C43.8601176,27.6135006 44.2126312,26.8968712 43.9946293,26.2314295 L43.0576852,23.4254065 L50.4280032,1.06563728 C50.6367284,0.428116288 51.3278406,0.0791084446 51.9632928,0.293166589 C52.3436365,0.418809413 52.6172984,0.711976001 52.7332568,1.06563728 C52.4317649,0.716629439 51.9540162,0.544452236 51.4762674,0.656134746 C50.7897935,0.819005074 50.3630665,1.50771389 50.5254083,2.19176926 L51.3927774,5.90986616 L44.2172695,27.6739953" id="Fill-22"></path>
                <path d="M42.3597701,27.8176553 C42.2994717,28.0084462 42.7379492,27.7504787 42.7657792,27.9366162 C42.6451824,27.8109734 42.1046615,28.1154753 42.0490015,27.9432981 L37.6169156,15.1283267 L39.0130551,13.3832875 C39.4536971,12.8295283 39.3702071,12.0244836 38.8182449,11.582407 C38.5909664,11.4009229 38.3265812,11.3078541 38.0575576,11.3032007 C38.6002431,11.284587 39.1104602,11.6242879 39.2913553,12.1640867 L43.0576852,23.4254065 L41.9073776,26.9108315" id="Fill-23"></path>
                <path d="M39.4654476,14.7435232 L38.069308,16.4885624 C38.069308,16.4885624 37.5812921,14.9689841 37.3372841,14.6626068 C36.8877061,14.098115 35.9885499,13.8759553 35.9885499,13.8759553 C35.7705481,13.2151671 37.2868171,11.3032007 37.6911289,11.3636954 C37.8117257,11.3264679 37.9323225,11.3032007 38.0575576,11.3032007 C38.3265812,11.3078541 38.5909664,11.4009229 38.8182449,11.582407 C39.3358369,11.728712 39.9060896,14.189764 39.4654476,14.7435232 Z" id="Fill-24"></path>
                <path d="M37.0278467,11.7778514 C37.2875936,11.4521107 37.6725756,11.2892404 38.0575576,11.3032007 C37.9323225,11.3032007 37.8117257,11.3264679 37.6911289,11.3636954 C37.0278467,11.5870604 36.6753331,12.3083433 36.8933349,12.9691315 L37.6169156,15.1283267 L34.3839944,19.1582039 L34.3097811,15.1702076 L37.0278467,11.7778514" id="Fill-25"></path>
                <path d="M33.3496452,20.4472062 L33.3496452,24.9377738 C33.3496452,25.300742 33.2244101,25.6078689 32.9693016,25.8638079 C32.714193,26.119747 32.4034244,26.2500433 32.0462724,26.2500433 C31.6891205,26.2500433 31.3829902,26.119747 31.1232433,25.8638079 C30.8681348,25.6078689 30.7428997,25.300742 30.7428997,24.9377738 L30.7428997,23.6999593 L33.3496452,20.4472062" id="Fill-26"></path>
                <path d="M33.3496452,20.9006181 L30.7428997,24.1533712 L30.7428997,23.4998615 C30.7382613,23.5045149 30.7382613,23.5045149 30.733623,23.5091684 L30.719708,19.193403 L33.3171769,15.9499568 L33.3496452,18.0041513 L33.3496452,20.9006181 Z" id="Fill-27"></path>
                <path id="Fill-28"></path>
                <path id="Fill-29"></path>
                <path id="Fill-30"></path>
                <path d="M28.836543,21.7175948 C29.1705033,21.3825472 29.4627186,21.0242325 29.7085504,20.6519575 L29.7085504,20.9078966 L28.7205846,22.1410576 C28.2799426,22.6901633 28.368071,23.495208 28.9153948,23.9372847 C29.15195,24.132729 29.4395269,24.2257978 29.7224655,24.2211444 L29.7224655,24.397975 C28.1222391,25.6311361 26.2854575,26.2500433 24.2213974,26.2500433 C21.6981419,26.2500433 19.5459534,25.3519298 17.7601935,23.5650096 C16.7675894,22.5691739 16.0532854,21.4616557 15.6126434,20.2378015 C15.7517935,19.6514683 15.8167302,19.0372145 15.8167302,18.3950401 L15.8167302,13.4344753 C16.2573723,12.4060655 16.9067395,11.466071 17.7601935,10.6098385 C19.5459534,8.81826485 21.6981419,7.92480477 24.2213974,7.92480477 C26.7400146,7.92480477 28.8922031,8.81826485 30.6779629,10.6098385 C32.2642743,12.2013142 33.1455584,14.09061 33.3171769,16.2730724 L33.3171769,16.4033687 L30.719708,19.6468149 L30.7104313,17.7761328 C30.733623,17.5527678 30.7428997,17.3200959 30.7428997,17.087424 C30.7428997,15.2772367 30.1074475,13.7322953 28.836543,12.4572533 C27.5610003,11.1822113 26.0257106,10.5446903 24.2213974,10.5446903 C22.4170842,10.5446903 20.8771562,11.1822113 19.6062518,12.4572533 C18.330709,13.7322953 17.6952568,15.2772367 17.6952568,17.087424 C17.6952568,18.8976114 18.330709,20.4425528 19.6062518,21.7175948 C20.8771562,22.9926368 22.4170842,23.6301577 24.2213974,23.6301577 C26.0257106,23.6301577 27.5610003,22.9926368 28.836543,21.7175948" id="Fill-31"></path>
                <path d="M29.7085504,20.9078966 L29.7224655,24.2211444 C29.4395269,24.2257978 29.15195,24.132729 28.9153948,23.9372847 C28.368071,23.495208 28.2799426,22.6901633 28.7205846,22.1410576 L29.7085504,20.9078966" id="Fill-32"></path>
                <path d="M15.8167302,18.3950401 C15.8167302,19.0372145 15.7517935,19.6514683 15.6126434,20.2378015 C15.2647681,19.2605795 15.0885113,18.2089026 15.0885113,17.087424 C15.0885113,15.7705011 15.3297048,14.5513004 15.8167302,13.4344753 L15.8167302,18.3950401 Z" id="Fill-33"></path>
                <path d="M15.8167302,13.4344753 C15.3297048,14.5513004 15.5409038,15.7705011 15.5409038,17.087424 C15.5409038,18.2089026 15.2647681,19.2605795 15.6126434,20.2378015 C15.2972364,21.6338329 14.6014858,22.8716474 13.5253916,23.951245 C11.9993786,25.482226 10.1533204,26.2500433 7.99185518,26.2500433 C5.82575166,26.2500433 3.98433175,25.482226 2.45368043,23.951245 C0.927667461,22.4156105 0.162341806,20.5681956 0.162341806,18.3950401 C0.162341806,18.0367254 0.29221525,17.7295985 0.547323802,17.4690059 C0.802432354,17.2130669 1.10856262,17.087424 1.47035293,17.087424 C1.8275049,17.087424 2.13363516,17.2130669 2.38874371,17.4690059 C2.64385226,17.7295985 2.77372571,18.0367254 2.77372571,18.3950401 C2.77372571,19.8469127 3.27930448,21.0800738 4.29973868,22.0991767 C5.31553455,23.122933 6.54469394,23.6301577 7.99185518,23.6301577 C9.43901642,23.6301577 10.6681758,23.122933 11.6839717,22.0991767 C12.6997675,21.0800738 13.2099846,19.8469127 13.2099846,18.3950401 L13.2099846,1.38207106 C13.2099846,1.02375634 13.3352198,0.711976001 13.5903283,0.456036916 C13.8500752,0.20009783 14.1562055,0.0744550067 14.5133574,0.0744550067 C14.8705094,0.0744550067 15.181278,0.20009783 15.4363866,0.456036916 C15.6914951,0.711976001 15.8167302,1.02375634 15.8167302,1.38207106 L15.8167302,13.4344753 Z" id="Fill-34"></path>
            </g>
        </g>
    </g>
</svg>